<svg xmlns="http://www.w3.org/2000/svg" width="144" height="116" viewBox="0 0 144 116" fill="none"><path d="M13.5302 99.5C13.1979 99.5 12.8733 99.4793 12.557 99.4396L12.4946 99.9356C11.7876 99.8467 11.1175 99.6679 10.4926 99.413L10.6814 98.95C10.0726 98.7017 9.50927 98.3762 9.00003 97.9879L8.69687 98.3856C8.14348 97.9636 7.65034 97.4725 7.22724 96.9288L7.62184 96.6218C7.22284 96.109 6.89015 95.5464 6.63316 94.9497L6.17394 95.1474C5.90144 94.5147 5.70879 93.8459 5.60579 93.1577L6.10028 93.0837C6.00549 92.4504 5.99177 91.7999 6.0676 91.1468L5.57093 91.0891C5.64878 90.4187 5.81498 89.7454 6.07777 89.0831L6.54252 89.2675C6.66009 88.9711 6.79844 88.6767 6.95855 88.3856L7.4298 87.5288L6.99169 87.2878L7.93419 85.5742L8.37229 85.8152L9.31479 84.1015L8.87668 83.8606L9.81918 82.1469L10.2573 82.3879L11.1998 80.6743L10.7617 80.4333L11.7042 78.7197L12.1423 78.9606L13.0848 77.247L12.6467 77.0061L13.5892 75.2924L14.0273 75.5334L14.9698 73.8198L14.5317 73.5788L15.4742 71.8652L15.9123 72.1061L16.8548 70.3925L16.4167 70.1515L17.3591 68.4379L17.7973 68.6789L18.7398 66.9652L18.3016 66.7243L19.2441 65.0107L19.6822 65.2516L20.6247 63.538L20.1866 63.297L21.1291 61.5834L21.5672 61.8244L22.5097 60.1107L22.0716 59.8698L23.0141 58.1561L23.4522 58.3971L24.3947 56.6835L23.9566 56.4425L24.8991 54.7289L25.3372 54.9698L26.2797 53.2562L25.8416 53.0153L26.7841 51.3016L27.2222 51.5426L28.1647 49.829L27.7266 49.588L28.6691 47.8744L29.1072 48.1153L30.0497 46.4017L29.6116 46.1607L30.5541 44.4471L30.9922 44.6881L31.9347 42.9744L31.4966 42.7335L32.4391 41.0199L32.8772 41.2608L33.8197 39.5472L33.3816 39.3062L34.3241 37.5926L34.7622 37.8336L35.7047 36.1199L35.2666 35.879L36.2091 34.1653L36.6472 34.4063L37.5897 32.6927L37.1516 32.4517L38.0941 30.7381L38.5322 30.979L39.4747 29.2654L39.0366 29.0244L39.9791 27.3108L40.4172 27.5518L41.3597 25.8381L40.9216 25.5972L41.864 23.8835L42.3022 24.1245L43.2447 22.4109L42.8065 22.1699L43.749 20.4563L44.1872 20.6972L45.1297 18.9836L44.6915 18.7426L45.634 17.029L46.0721 17.27L47.0146 15.5563L46.5765 15.3154L47.519 13.6018L47.9571 13.8427L48.4284 12.9859C48.5936 12.6855 48.774 12.4029 48.9676 12.138L48.5639 11.843C48.9979 11.2491 49.496 10.7369 50.0404 10.3062L50.3506 10.6983C50.8821 10.2778 51.4611 9.94019 52.0693 9.68554L51.8762 9.22434C52.5375 8.94743 53.2305 8.76268 53.9342 8.67008L53.9994 9.16581C54.6631 9.07847 55.3369 9.07847 56.0006 9.16581L56.0658 8.67008C56.7695 8.76268 57.4625 8.94743 58.1238 9.22435L57.9307 9.68555C58.5389 9.94019 59.1179 10.2778 59.6494 10.6983L59.9596 10.3062C60.504 10.7369 61.0021 11.2491 61.4361 11.843L61.0324 12.138C61.226 12.4029 61.4064 12.6855 61.5716 12.9859L62.0429 13.8427L62.481 13.6018L63.4235 15.3154L62.9854 15.5564L63.9279 17.27L64.366 17.029L65.3085 18.7427L64.8704 18.9836L65.8129 20.6973L66.251 20.4563L67.1935 22.1699L66.7553 22.4109L67.6978 24.1245L68.1359 23.8836L69.0784 25.5972L68.6403 25.8381L69.5828 27.5518L70.0209 27.3108L70.9634 29.0244L70.5253 29.2654L71.4678 30.979L71.9059 30.7381L72.8484 32.4517L72.4103 32.6927L73.3528 34.4063L73.7909 34.1653L74.7334 35.879L74.2953 36.1199L75.2378 37.8336L75.6759 37.5926L76.6184 39.3062L76.1803 39.5472L77.1228 41.2608L77.5609 41.0199L78.5034 42.7335L78.0653 42.9744L79.0078 44.6881L79.4459 44.4471L80.3884 46.1607L79.9503 46.4017L80.8928 48.1153L81.3309 47.8744L82.2734 49.588L81.8353 49.829L82.7778 51.5426L83.2159 51.3016L84.1584 53.0153L83.7203 53.2562L84.6628 54.9698L85.1009 54.7289L86.0434 56.4425L85.6053 56.6835L86.5478 58.3971L86.9859 58.1561L87.9284 59.8698L87.4903 60.1107L88.4328 61.8244L88.8709 61.5834L89.8134 63.297L89.3753 63.538L90.3177 65.2516L90.7559 65.0107L91.6984 66.7243L91.2602 66.9652L92.2027 68.6789L92.6408 68.4379L93.5833 70.1515L93.1452 70.3925L94.0877 72.1061L94.5258 71.8652L95.4683 73.5788L95.0302 73.8198L95.9727 75.5334L96.4108 75.2924L97.3533 77.0061L96.9152 77.247L97.8577 78.9607L98.2958 78.7197L99.2383 80.4333L98.8002 80.6743L99.7427 82.3879L100.181 82.147L101.123 83.8606L100.685 84.1016L101.628 85.8152L102.066 85.5742L103.008 87.2879L102.57 87.5288L103.041 88.3856C103.202 88.6767 103.34 88.9711 103.457 89.2675L103.922 89.0831C104.185 89.7454 104.351 90.4187 104.429 91.0892L103.932 91.1468C104.008 91.7999 103.995 92.4504 103.9 93.0837L104.394 93.1577C104.291 93.8459 104.099 94.5147 103.826 95.1474L103.367 94.9497C103.11 95.5464 102.777 96.109 102.378 96.6218L102.773 96.9288C102.35 97.4725 101.857 97.9636 101.303 98.3856L101 97.988C100.491 98.3762 99.9274 98.7017 99.3186 98.95L99.5074 99.413C98.8824 99.6679 98.2124 99.8467 97.5054 99.9356L97.443 99.4396C97.1267 99.4793 96.802 99.5 96.4698 99.5H95.4825V100H93.5077V99.5H91.5329V100H89.5582V99.5H87.5834V100H85.6087V99.5H83.6339V100H81.6592V99.5H79.6844V100H77.7097V99.5H75.7349V100H73.7602V99.5H71.7854V100H69.8106V99.5H67.8359V100H65.8611V99.5H63.8864V100H61.9116V99.5H59.9369V100H57.9621V99.5H55.9874V100H54.0126V99.5H52.0379V100H50.0631V99.5H48.0884V100H46.1136V99.5H44.1388V100H42.1641V99.5H40.1893V100H38.2146V99.5H36.2398V100H34.2651V99.5H32.2903V100H30.3156V99.5H28.3408V100H26.3661V99.5H24.3913V100H22.4165V99.5H20.4418V100H18.467V99.5H16.4923V100H14.5175V99.5H13.5302Z" stroke="white" stroke-dasharray="2 2"></path><path d="M63.9903 28.745C67.0297 23.2188 74.9703 23.2188 78.0097 28.745L119.48 104.145C122.412 109.476 118.555 116 112.47 116H29.5302C23.4453 116 19.5881 109.476 22.5204 104.145L63.9903 28.745Z" fill="#ab19ff"></path><line x1="64" y1="69.5" x2="144" y2="69.5" stroke="white"></line></svg>