<svg xmlns="http://www.w3.org/2000/svg" width="51" height="40" viewBox="0 0 51 40" fill="none"><path d="M4.93437 7.08464L0.95871 16.8709C0.664576 17.5949 0.664576 18.4051 0.95871 19.1291L4.93437 28.9154C5.23917 29.6656 5.83435 30.2608 6.58464 30.5656L16.3709 34.5413C17.0949 34.8354 17.9051 34.8354 18.6291 34.5413L28.4154 30.5656C29.1656 30.2608 29.7608 29.6656 30.0656 28.9154L34.0413 19.1291C34.3354 18.4051 34.3354 17.5949 34.0413 16.8709L30.0656 7.08464C29.7608 6.33435 29.1656 5.73917 28.4154 5.43437L18.6291 1.45871C17.9051 1.16458 17.0949 1.16458 16.3709 1.45871L6.58464 5.43437C5.83435 5.73917 5.23917 6.33435 4.93437 7.08464Z" stroke="white" stroke-dasharray="2 2"></path><path d="M9.93437 12.0846L5.95871 21.8709C5.66458 22.5949 5.66458 23.4051 5.95871 24.1291L9.93437 33.9154C10.2392 34.6656 10.8344 35.2608 11.5846 35.5656L21.3709 39.5413C22.0949 39.8354 22.9051 39.8354 23.6291 39.5413L33.4154 35.5656C34.1656 35.2608 34.7608 34.6656 35.0656 33.9154L39.0413 24.1291C39.3354 23.4051 39.3354 22.5949 39.0413 21.8709L35.0656 12.0846C34.7608 11.3344 34.1656 10.7392 33.4154 10.4344L23.6291 6.45871C22.9051 6.16458 22.0949 6.16458 21.3709 6.45871L11.5846 10.4344C10.8344 10.7392 10.2392 11.3344 9.93437 12.0846Z" fill="#ab19ff"></path><line x1="22.7222" y1="22.5" x2="50.5" y2="22.5" stroke="white"></line></svg>