<svg xmlns="http://www.w3.org/2000/svg" width="312" height="71" viewBox="0 0 312 71" fill="none"><path d="M6.30955 0C8.52686 0 10.9887 1.82204 13.6951 5.46611L50.3786 46.5829H50.6231V6.04658C50.6231 3.43446 52.1068 1.5318 55.0741 0.338609C55.4327 0.177366 56.0197 0.0644969 56.8349 0C59.6391 0 61.6771 1.62855 62.9488 4.88564L63.0466 6.24007V63.0779C63.0466 65.948 61.4488 67.9474 58.2533 69.0761L56.8349 69.318C54.5849 69.318 52.3187 67.7701 50.0362 64.6742C26.3306 38.1338 13.9071 24.1541 12.7658 22.7351H12.4235V40.4395C12.4235 43.7611 10.5159 45.8573 6.70084 46.728H6.1139C3.24445 46.728 1.23908 45.0994 0.0978225 41.8423C0.0326075 41.4231 0 41.0845 0 40.8265V6.14333C0 3.33771 1.59777 1.37056 4.7933 0.241863C5.51067 0.0806211 6.01608 0 6.30955 0Z" fill="white"></path><path d="M83.826 6.66111C83.826 4.89028 84.4114 3.5281 85.5822 2.57458C86.7529 1.62106 88.1647 1.1443 89.8175 1.1443C91.4703 1.1443 92.8821 1.62106 94.0528 2.57458C95.2924 3.5281 95.9122 4.89028 95.9122 6.66111V64.1077C95.9122 65.7423 95.2924 67.0364 94.0528 67.9899C92.8821 68.8753 91.4703 69.318 89.8175 69.318C88.1647 69.318 86.7529 68.8753 85.5822 67.9899C84.4114 67.1045 83.826 65.8104 83.826 64.1077V6.66111Z" fill="white"></path><path d="M140.097 3.21852C151.184 3.21852 159.758 6.5899 165.818 13.3327C166.989 14.6948 167.575 16.057 167.575 17.4192C167.575 18.8495 167.024 20.0414 165.922 20.9949C164.82 21.9484 163.511 22.4252 161.996 22.4252C160.206 22.4252 158.622 21.71 157.244 20.2797C154.834 17.6916 152.252 15.9548 149.497 15.0694C146.742 14.1159 143.574 13.6391 139.993 13.6391C135.655 13.6391 131.833 14.5927 128.527 16.4997C125.29 18.3386 122.742 20.9608 120.883 24.3663C119.092 27.7036 118.197 31.5858 118.197 36.0129C118.197 40.7805 119.127 44.9692 120.986 48.5789C122.845 52.1887 125.462 54.9811 128.837 56.9563C132.211 58.9314 136.102 59.919 140.51 59.919C143.678 59.919 146.88 59.1358 150.117 57.5693C153.354 55.9346 155.97 53.9254 157.968 51.5416C159.689 49.5665 161.549 48.5789 163.546 48.5789C164.992 48.5789 166.232 49.0557 167.265 50.0092C168.367 50.9627 168.917 52.1546 168.917 53.5849C168.917 54.879 168.401 56.2411 167.368 57.6714C164.613 61.5536 160.688 64.6526 155.592 66.9683C150.564 69.2158 145.468 70.3396 140.303 70.3396C133.554 70.3396 127.597 68.9094 122.432 66.0488C117.336 63.1882 113.376 59.1698 110.553 53.9935C107.729 48.8173 106.317 42.8237 106.317 36.0129C106.317 29.5425 107.798 23.8214 110.759 18.8495C113.721 13.8775 117.749 10.0294 122.845 7.30504C128.01 4.58069 133.761 3.21852 140.097 3.21852Z" fill="white"></path><path d="M244.636 36.8302C244.636 43.4367 243.224 49.294 240.401 54.4022C237.646 59.4422 233.721 63.3585 228.624 66.1509C223.597 68.9434 217.743 70.3396 211.063 70.3396C204.383 70.3396 198.461 68.9434 193.296 66.1509C188.199 63.3585 184.24 59.4422 181.416 54.4022C178.592 49.294 177.181 43.4367 177.181 36.8302C177.181 30.2236 178.592 24.3663 181.416 19.2581C184.24 14.15 188.199 10.1997 193.296 7.40721C198.461 4.61475 204.383 3.21852 211.063 3.21852C217.674 3.21852 223.528 4.61475 228.624 7.40721C233.721 10.1997 237.646 14.15 240.401 19.2581C243.224 24.2982 244.636 30.1555 244.636 36.8302ZM211.063 59.919C215.333 59.919 219.086 58.9655 222.323 57.0584C225.56 55.0833 228.073 52.3589 229.864 48.8854C231.655 45.4119 232.55 41.3934 232.55 36.8302C232.55 32.2669 231.655 28.2485 229.864 24.7749C228.073 21.2333 225.56 18.5089 222.323 16.6019C219.086 14.6267 215.333 13.6391 211.063 13.6391C206.794 13.6391 203.006 14.6267 199.7 16.6019C196.395 18.5089 193.846 21.2333 192.056 24.7749C190.265 28.2485 189.37 32.2669 189.37 36.8302C189.37 41.3934 190.265 45.4119 192.056 48.8854C193.846 52.3589 196.395 55.0833 199.7 57.0584C203.006 58.9655 206.794 59.919 211.063 59.919Z" fill="white"></path><path d="M266.031 69.318C263.896 69.318 262.312 68.8753 261.279 67.9899C260.315 67.0364 259.833 65.6401 259.833 63.8012V6.35461C259.833 4.72001 260.419 3.46 261.589 2.57458C262.829 1.62106 264.275 1.1443 265.928 1.1443C267.512 1.1443 268.889 1.62106 270.06 2.57458C271.3 3.46 271.919 4.72001 271.919 6.35461V59.1017H305.802C307.73 59.1017 309.245 59.6125 310.347 60.6341C311.449 61.6558 312 62.8477 312 64.2099C312 65.6401 311.449 66.8661 310.347 67.8877C309.245 68.8412 307.73 69.318 305.802 69.318H266.031Z" fill="white"></path><path d="M11.7387 61.8572C10.2388 59.6965 8.47795 58.6162 6.45628 58.6162C6.22803 58.6162 5.69001 58.6807 4.84221 58.8097C1.61407 60.0029 0 62.0184 0 64.8563C0 64.953 0.13043 65.5013 0.39129 66.501C1.63037 69.5001 3.57052 70.9996 6.21173 70.9996C7.05952 70.9351 7.64646 70.8222 7.97253 70.661C11.0376 69.5001 12.5702 67.5652 12.5702 64.8563C12.5702 63.9533 12.293 62.9536 11.7387 61.8572Z" fill="#ab19ff"></path></svg>